<svg width="310" height="310" viewBox="0 0 310 310" fill="none" xmlns="http://www.w3.org/2000/svg">
<g clip-path="url(#clip0_3_37)">
<path d="M276.786 168.839C260.36 168.839 246.72 180.835 244.071 196.518H221.429C203.114 196.518 188.214 211.409 188.214 229.713V290.625H199.286V229.713C199.286 217.515 209.22 207.589 221.429 207.589H244.071C246.718 223.272 260.36 235.268 276.786 235.268C295.101 235.268 310 220.368 310 202.054C310 183.739 295.101 168.839 276.786 168.839ZM276.786 224.196C264.577 224.196 254.643 214.263 254.643 202.054C254.643 189.845 264.577 179.911 276.786 179.911C288.995 179.911 298.929 189.845 298.929 202.054C298.929 214.263 288.995 224.196 276.786 224.196Z" fill="white"/>
<path d="M127.321 85.8036H105.179C105.179 67.4887 90.2792 52.5893 71.9643 52.5893C53.6494 52.5893 38.75 67.4887 38.75 85.8036C38.75 104.118 53.6494 119.018 71.9643 119.018C86.3931 119.018 98.6672 109.755 103.241 96.875H127.321C139.53 96.875 149.464 106.823 149.464 119.051V290.625H160.536V119.051C160.536 100.718 145.636 85.8036 127.321 85.8036ZM71.9643 107.946C59.7553 107.946 49.8214 98.0126 49.8214 85.8036C49.8214 73.5946 59.7553 63.6607 71.9643 63.6607C84.1733 63.6607 94.1071 73.5946 94.1071 85.8036C94.1071 98.0126 84.1733 107.946 71.9643 107.946Z" fill="white"/>
<path d="M88.5714 168.839H65.929C63.2801 153.157 49.6401 141.161 33.2143 141.161C14.8994 141.161 0 156.06 0 174.375C0 192.69 14.8994 207.589 33.2143 207.589C49.6401 207.589 63.2801 195.593 65.929 179.911H88.5714C100.78 179.911 110.714 189.853 110.714 202.073V290.625H121.786V202.073C121.786 183.75 106.886 168.839 88.5714 168.839ZM33.2143 196.518C21.0053 196.518 11.0714 186.584 11.0714 174.375C11.0714 162.166 21.0053 152.232 33.2143 152.232C45.4233 152.232 55.3571 162.166 55.3571 174.375C55.3571 186.584 45.4233 196.518 33.2143 196.518Z" fill="white"/>
<path d="M226.218 130.089H244.071C246.718 145.772 260.36 157.768 276.786 157.768C295.101 157.768 310 142.868 310 124.554C310 106.239 295.101 91.3393 276.786 91.3393C260.36 91.3393 246.72 103.335 244.071 119.018H226.218C217.504 119.018 210.414 111.925 210.414 103.205V19.375H199.342V103.205C199.342 118.028 211.398 130.089 226.218 130.089ZM276.786 102.411C288.995 102.411 298.929 112.345 298.929 124.554C298.929 136.763 288.995 146.696 276.786 146.696C264.577 146.696 254.643 136.763 254.643 124.554C254.643 112.345 264.577 102.411 276.786 102.411Z" fill="white"/>
</g>
<defs>
<clipPath id="clip0_3_37">
<rect width="310" height="310" fill="white"/>
</clipPath>
</defs>
</svg>
